# AST/ASF file generated using VICON BodyLanguage
# -----------------------------------------------
:version 1.10
:name VICON
:units
  mass 1.0
  length 0.45
  angle deg
:documentation
   .ast/.asf automatically generated from VICON data using
   VICON BodyBuilder and BodyLanguage model FoxedUp or BRILLIANT.MOD
:root
   order TX TY TZ RX RY RZ
   axis XYZ
   position 0 0 0  
   orientation 0 0 0 
:bonedata
  begin
     id 1 
     name lhipjoint
     direction 0.54267 -0.795011 0.271047 
     length 2.39899 
     axis 0 0 0  XYZ
  end
  begin
     id 2 
     name lfemur
     direction 0.34202 -0.939693 0  
     length 7.49701  
     axis 0 0 20  XYZ
    dof rx ry rz
    limits (-160.0 20.0)
           (-70.0 70.0)
           (-60.0 70.0)
  end
  begin
     id 3 
     name ltibia
     direction 0.34202 -0.939693 0   
     length 8.1668   
     axis 0 0 20   XYZ
    dof rx
    limits (-10.0 170.0)
  end
  begin
     id 4 
     name lfoot
     direction 0.0736283 -0.202292 0.976554   
     length 2.13544   
     axis -90 7.62852e-016 20   XYZ
    dof rx rz
    limits (-45.0 90.0)
           (-70.0 20.0)
  end
  begin
     id 5 
     name ltoes
     direction 1.53557e-011 -4.22024e-011 1   
     length 1.07411   
     axis -90 7.62852e-016 20   XYZ
    dof rx
    limits (-90.0 20.0)
  end
  begin
     id 6 
     name rhipjoint
     direction -0.538061 -0.797813 0.272002   
     length 2.39057  
     axis 0 0 0  XYZ 
  end
  begin
     id 7 
     name rfemur
     direction -0.34202 -0.939693 0   
     length 7.50152   
     axis 0 0 -20   XYZ
    dof rx ry rz
    limits (-160.0 20.0)
           (-70.0 70.0)
           (-70.0 60.0)
  end
  begin
     id 8 
     name rtibia
     direction -0.34202 -0.939693 0   
     length 8.05793   
     axis 0 0 -20   XYZ
    dof rx
    limits (-10.0 170.0)
 end
 begin
     id 9 
     name rfoot
     direction -0.0765195 -0.210236 0.974652   
     length 2.28698  
     axis -90 -7.62852e-016 -20   XYZ
    dof rx rz
    limits (-45.0 90.0)
           (-20.0 70.0)
  end
  begin
     id 10 
     name rtoes
     direction -1.53542e-011 -4.21847e-011 1   
     length 1.14762   
     axis -90 -7.62852e-016 -20   XYZ
    dof rx
    limits (-90.0 20.0)
  end
  begin
     id 11 
     name lowerback
     direction -0.0217239 0.996592 -0.0795765   
     length 2.08176   
     axis 0 0 0   XYZ
    dof rx ry rz
    limits (-20.0 45.0)
           (-30.0 30.0)
           (-30.0 30.0)
  end
  begin
     id 12 
     name upperback
     direction -0.00563773 0.999651 -0.0258155   
     length 2.08898   
     axis 0 0 0   XYZ
    dof rx ry rz
    limits (-20.0 45.0)
           (-30.0 30.0)
           (-30.0 30.0)
  end
  begin
     id 13 
     name thorax
     direction 0.0032706 0.999923 0.0119599   
     length 2.0968   
     axis 0 0 0   XYZ
    dof rx ry rz
    limits (-20.0 45.0)
           (-30.0 30.0)
           (-30.0 30.0)
  end
  begin
     id 14 
     name lowerneck
     direction -0.0285886 0.99568 0.0883427   
     length 1.81272   
     axis 0 0 0   XYZ
    dof rx ry rz
    limits (-20.0 45.0)
           (-30.0 30.0)
           (-30.0 30.0)
  end
  begin
     id 15 
     name upperneck
     direction 0.0807535 0.97985 -0.18268   
     length 1.82518   
     axis 0 0 0   XYZ
    dof rx ry rz
    limits (-20.0 45.0)
           (-30.0 30.0)
           (-30.0 30.0)
  end
  begin
     id 16
     name head
     direction 0.0236605 0.997053 -0.0729767  
     length 1.84443  
     axis 0 0 0   XYZ
    dof rx ry rz
    limits (-20.0 45.0)
           (-30.0 30.0)
           (-30.0 30.0)
  end
  begin
     id 17 
     name lclavicle
     direction 0.918986 0.39378 -0.0200683  
     length 3.27822  
     axis 0 0 0   XYZ
    dof ry rz
    limits (-20.0 10.0)
           (0.0 20.0)
  end
  begin
     id 18 
     name lhumerus
     direction 1 -4.4897e-011 2.09544e-027   
     length 5.5568   
     axis 180 -30 -90   XYZ
    dof rx ry rz
    limits (-60.0 90.0)
           (-90.0 90.0)
           (-90.0 90.0)
  end
  begin
     id 19
     name lradius
     direction 1 -4.48957e-011 -1.27696e-026   
     length 3.63979   
     axis 180 -30 -90   XYZ
    dof rx
    limits (-10.0 170.0)
  end
  begin
     id 20
     name lwrist
     direction 1 -4.49001e-011 -1.49001e-026   
     length 1.8199   
     axis 9.0955e-015 90 90   XYZ
    dof ry
    limits (-180.0 0.0)
 end
  begin
     id 21 
     name lhand
     direction 1 -4.48709e-011 -2.9758e-026   
     length 0.569419   
     axis 1.90115e-014 90 90   XYZ
    dof rx rz
    limits (-90.0 90.0)
           (-45.0 45.0)
  end
  begin
     id 22 
     name lfingers
     direction 1 -4.49175e-011 -5.96505e-026   
     length 0.45908   
     axis 3.80223e-014 90 90   XYZ
    dof rx
    limits (0.0 90.0)
  end
  begin
     id 23
     name lthumb
     direction 0.707107 -6.34864e-011 0.707107   
     length 0.65915   
     axis -90 45 -3.84942e-014   XYZ
    dof rx rz
    limits (-45.0 45.0)
           (-45.0 45.0)
  end
  begin
     id 24 
     name rclavicle
     direction -0.911913 0.396426 -0.106115   
     length 3.46301  
     axis 0 0 0   XYZ 
    dof ry rz
    limits (-10.0 20.0)
           (-20.0 0.0)
  end
  begin
     id 25 
     name rhumerus
     direction -1 -4.48965e-011 7.78516e-028  
     length 5.34339   
     axis 180 30 90   XYZ
    dof rx ry rz
    limits (-90.0 60.0)
           (-90.0 90.0)
           (-90.0 90.0)
  end
  begin
     id 26 
     name rradius
     direction -1 -4.48948e-011 -5.79823e-027   
     length 3.65101   
     axis 180 30 90   XYZ
    dof rx
    limits (-10.0 170.0)
  end
  begin
     id 27 
     name rwrist
     direction -1 -4.48995e-011 -1.48996e-026   
     length 1.8255   
     axis 9.0955e-015 -90 -90   XYZ
    dof ry
    limits (-180.0 0.0)
  end
  begin
     id 28
     name rhand
     direction -1 -4.48957e-011 -2.97937e-026   
     length 0.694249   
     axis 1.90115e-014 -90 -90   XYZ
    dof rx rz
    limits (-90.0 90.0)
           (-45.0 45.0)
  end
  begin
     id 29
     name rfingers
     direction -1 -4.4898e-011 -5.95943e-026   
     length 0.559721   
     axis 3.80223e-014 -90 -90   XYZ
    dof rx
    limits (0.0 90.0)
  end
  begin
     id 30
     name rthumb
     direction -0.707107 -6.34969e-011 0.707107   
     length 0.803651   
     axis -90 -45 3.84942e-014   XYZ
    dof rx rz
    limits (-45.0 45.0)
           (-45.0 45.0)
  end
:hierarchy
  begin
    root lhipjoint rhipjoint lowerback
    lhipjoint lfemur
    lfemur ltibia
    ltibia lfoot
    lfoot ltoes
    rhipjoint rfemur
    rfemur rtibia
    rtibia rfoot
    rfoot rtoes
    lowerback upperback
    upperback thorax
    thorax lowerneck lclavicle rclavicle
    lowerneck upperneck
    upperneck head
    lclavicle lhumerus
    lhumerus lradius
    lradius lwrist
    lwrist lhand lthumb
    lhand lfingers
    rclavicle rhumerus
    rhumerus rradius
    rradius rwrist
    rwrist rhand rthumb
    rhand rfingers
  end

#!OML:ASF H:\Terrain\Walking\May29\JustinRory\rory.ASF
:FULLY-SPECIFIED
:DEGREES
224
root 12.3669 18.3532 -10.1355 -4.80144 -13.0607 3.88577
lowerback 3.9567 0.902851 -1.0968
upperback 1.47446 1.16628 0.70388
thorax -0.741342 0.578581 1.28343
lowerneck -15.2546 -2.06068 -1.27228
upperneck 18.5805 -2.29507 -1.20314
head 8.29009 -1.30614 -0.457423
rclavicle -3.77132e-014 -1.43125e-014
rhumerus -30.1544 19.6643 -98.5349
rradius 65.1492
rwrist -9.29935
rhand -26.9936 43.4182
rfingers 7.12502
rthumb -0.413902 13.4389
lclavicle -3.77132e-014 -1.43125e-014
lhumerus -36.8711 18.2187 78.5553
lradius 26.2618
lwrist 1.88201
lhand -25.7958 23.7832
lfingers 7.12502
lthumb 0.742973 53.7616
rfemur -9.43932 12.9559 17.0593
rtibia 24.3549
rfoot -10.1177 -2.16218
rtoes 17.161
lfemur -20.3943 4.646 -18.2628
ltibia 36.0475
lfoot -9.59947 6.63678
ltoes -2.8036
225
root 12.39 18.371 -10.1713 -5.47628 -11.4174 3.98408
lowerback 4.58732 0.634646 -0.663329
upperback 1.62862 0.821006 0.6243
thorax -0.917607 0.406904 0.968649
lowerneck -15.2711 -2.36863 -1.79816
upperneck 18.3139 -2.60833 -1.12249
head 8.21316 -1.4813 -0.377745
rclavicle -2.14004e-014 7.95139e-016
rhumerus -30.7371 18.677 -97.5237
rradius 65.3533
rwrist -9.35924
rhand -27.0598 43.8656
rfingers 7.12502
rthumb -0.477873 13.8864
lclavicle -2.14004e-014 7.95139e-016
lhumerus -36.5954 17.2527 79.273
lradius 25.7721
lwrist 2.68244
lhand -26.8105 23.5112
lfingers 7.12502
lthumb -0.237044 53.4909
rfemur -8.66327 11.9018 16.9346
rtibia 24.5921
rfoot -10.3523 -2.68633
rtoes 17.1995
lfemur -20.2294 3.51801 -18.5719
ltibia 37.4139
lfoot -9.34931 6.60715
ltoes -2.37283
226
root 12.3816 18.3393 -10.2344 -5.35454 -11.6587 3.486
lowerback 4.64247 0.816511 -0.234699
upperback 1.60508 1.08369 0.746493
thorax -0.97278 0.538764 0.838508
lowerneck -15.2798 -2.41567 -1.61837
upperneck 17.9774 -2.68742 -1.26519
head 8.09712 -1.51882 -0.460385
rclavicle 6.86428e-015 -1.03368e-014
rhumerus -31.3104 17.8668 -96.9595
rradius 65.6139
rwrist -9.51149
rhand -26.7043 43.6384
rfingers 7.12502
rthumb -0.134501 13.6587
lclavicle 6.86428e-015 -1.03368e-014
lhumerus -37.0194 16.2313 79.4215
lradius 26.7111
lwrist 3.50863
lhand -27.0595 23.43
lfingers 7.12502
lthumb -0.477576 53.4092
rfemur -9.11897 12.3467 17.5469
rtibia 24.9086
rfoot -10.2958 -2.99868
rtoes 15.4169
lfemur -20.4406 4.6601 -18.1527
ltibia 38.7635
lfoot -8.95156 6.25937
ltoes -5.42699
227
root 12.3757 18.2582 -10.2841 -5.37886 -11.4948 2.96544
lowerback 4.70349 0.720569 0.146298
upperback 1.63053 0.974283 0.853755
thorax -0.974444 0.484247 0.740222
lowerneck -15.3944 -2.28225 -1.3594
upperneck 17.8725 -2.54964 -1.33474
head 8.07722 -1.44228 -0.510715
rclavicle -3.29858e-015 -9.54166e-015
rhumerus -31.8147 17.362 -96.6254
rradius 65.6166
rwrist -9.46977
rhand -26.5124 42.7954
rfingers 7.12502
rthumb 0.0508464 12.8156
lclavicle -3.29858e-015 -9.54166e-015
lhumerus -37.1681 17.1974 78.8913
lradius 26.7431
lwrist 3.02658
lhand -27.7294 21.4266
lfingers 7.12502
lthumb -1.12453 51.4034
rfemur -9.41725 12.5437 18.1821
rtibia 25.4334
rfoot -10.3645 -3.45005
rtoes 14.1614
lfemur -20.1092 6.06085 -17.9601
ltibia 40.1036
lfoot -8.50239 5.36218
ltoes -12.1601
228
root 12.3747 18.2596 -10.3162 -5.78948 -11.2452 3.33469
lowerback 4.85964 0.682708 -0.212065
upperback 1.71056 0.906296 0.7706
thorax -0.982773 0.449744 0.858325
lowerneck -15.5237 -2.23985 -1.5959
upperneck 17.9357 -2.47431 -1.12095
head 8.12789 -1.40126 -0.394602
rclavicle -1.61513e-015 -1.59028e-015
rhumerus -32.2787 16.9951 -96.0795
rradius 65.3381
rwrist -9.31936
rhand -26.7574 42.3868
rfingers 7.12502
rthumb -0.185754 12.4072
lclavicle -1.61513e-015 -1.59028e-015
lhumerus -37.1286 18.359 78.4347
lradius 26.0712
lwrist 1.80074
lhand -27.8398 21.1032
lfingers 7.12502
lthumb -1.23115 51.0794
rfemur -9.37638 12.1466 17.803
rtibia 25.9823
rfoot -10.5924 -3.25413
rtoes 14.1522
lfemur -19.8312 5.92101 -18.2325
ltibia 41.5015
lfoot -8.78288 4.63703
ltoes -6.45782
229
root 12.3789 18.2584 -10.364 -5.9159 -11.2735 3.55963
lowerback 4.94961 0.637227 -0.404769
upperback 1.70019 0.834801 0.62676
thorax -1.04297 0.41421 0.821821
lowerneck -15.4996 -2.11039 -1.35231
upperneck 17.7687 -2.35845 -1.11198
head 8.06398 -1.32799 -0.416396
rclavicle -1.37286e-015 1.90833e-014
rhumerus -32.6452 16.6605 -95.8196
rradius 64.8776
rwrist -9.16473
rhand -26.8209 42.257
rfingers 7.12502
rthumb -0.247128 12.2774
lclavicle -1.37286e-015 1.90833e-014
lhumerus -37.2139 18.5312 78.017
lradius 25.8608
lwrist 1.37837
lhand -27.8983 21.1121
lfingers 7.12502
lthumb -1.28764 51.088
rfemur -9.7096 12.0061 17.5222
rtibia 26.4335
rfoot -10.6769 -2.98579
rtoes 14.3112
lfemur -19.8445 6.0621 -18.3799
ltibia 42.9125
lfoot -8.64549 4.14931
ltoes -3.82505
230
root 12.3813 18.2556 -10.4243 -5.80037 -11.3035 3.31689
lowerback 4.96517 0.602167 -0.17678
upperback 1.63233 0.799136 0.606406
thorax -1.1173 0.397009 0.674511
lowerneck -15.5686 -2.03525 -0.99743
upperneck 17.6275 -2.31018 -1.26088
head 8.02215 -1.29558 -0.51805
rclavicle -1.53033e-014 -2.70347e-014
rhumerus -32.9736 15.9875 -95.4867
rradius 64.2404
rwrist -8.84662
rhand -26.5497 41.9976
rfingers 7.12502
rthumb 0.0148242 12.0178
lclavicle -1.53033e-014 -2.70347e-014
lhumerus -37.4296 17.6826 77.9846
lradius 26.121
lwrist 2.35832
lhand -28.3147 20.2102
lfingers 7.12502
lthumb -1.68984 50.1833
rfemur -10.0584 12.1698 17.7638
rtibia 26.5262
rfoot -10.5592 -3.02174
rtoes 15.4662
lfemur -20.1532 6.55104 -18.1336
ltibia 44.3676
lfoot -7.85162 3.87888
ltoes -9.01233
231
root 12.3791 18.2509 -10.4688 -6.01057 -11.1733 3.51493
lowerback 4.89206 0.718514 -0.446026
upperback 1.7383 0.940918 0.611643
thorax -0.974028 0.466897 0.824332
lowerneck -15.8338 -2.13922 -1.22034
upperneck 17.6434 -2.40484 -1.20305
head 8.07835 -1.34961 -0.476596
rclavicle -2.17421e-017 -3.18055e-015
rhumerus -33.3175 14.9535 -94.5881
rradius 63.6873
rwrist -8.60048
rhand -26.1992 41.6325
rfingers 7.12502
rthumb 0.35339 11.6531
lclavicle -2.17421e-017 -3.18055e-015
lhumerus -37.5509 16.5119 78.3098
lradius 26.4052
lwrist 3.25391
lhand -28.4376 20.5439
lfingers 7.12502
lthumb -1.80855 50.516
rfemur -10.0772 12.0391 17.5601
rtibia 26.6699
rfoot -10.5633 -2.88934
rtoes 16.8003
lfemur -20.0555 6.83977 -18.3281
ltibia 45.7995
lfoot -7.19971 3.28298
ltoes -11.035
232
root 12.382 18.2451 -10.5069 -6.18573 -10.8486 3.84086
lowerback 4.76819 0.792366 -0.789643
upperback 1.74531 1.02448 0.640674
thorax -0.905676 0.507767 1.04386
lowerneck -15.8178 -2.31404 -1.79577
upperneck 17.667 -2.54074 -1.01979
head 8.0949 -1.43429 -0.337118
rclavicle 1.61242e-014 1.35174e-014
rhumerus -33.7431 13.8655 -93.5659
rradius 63.0261
rwrist -8.65105
rhand -26.0328 41.4182
rfingers 7.12502
rthumb 0.514026 11.4391
lclavicle 1.61242e-014 1.35174e-014
lhumerus -37.7253 16.1323 78.472
lradius 26.3785
lwrist 3.20746
lhand -29.0788 20.2409
lfingers 7.12502
lthumb -2.42782 50.2068
rfemur -10.0936 11.6239 17.1443
rtibia 26.7642
rfoot -10.593 -2.6421
rtoes 17.6178
lfemur -19.9327 6.76075 -18.6438
ltibia 47.1931
lfoot -6.57416 2.42088
ltoes -9.65927
233
root 12.3913 18.2413 -10.5526 -6.1676 -10.5331 3.97847
lowerback 4.72532 0.677072 -0.931168
upperback 1.59233 0.864978 0.62012
thorax -1.03657 0.429436 1.1104
lowerneck -15.5868 -2.32933 -1.95941
upperneck 17.5987 -2.54985 -0.914642
head 8.03514 -1.43878 -0.272812
rclavicle 9.98582e-015 3.33958e-014
rhumerus -34.1939 13.1404 -92.9541
rradius 62.0489
rwrist -8.68035
rhand -26.0541 41.3193
rfingers 7.12502
rthumb 0.493533 11.3401
lclavicle 9.98582e-015 3.33958e-014
lhumerus -38.2543 16.6575 78.1663
lradius 26.3918
lwrist 2.91358
lhand -29.4757 19.2404
lfingers 7.12502
lthumb -2.81112 49.2016
rfemur -10.2584 11.3354 16.9002
rtibia 26.7854
rfoot -10.5141 -2.57762
rtoes 17.7413
lfemur -19.9909 6.61137 -18.8088
ltibia 48.5282
lfoot -5.7759 1.61565
ltoes -12.7879
234
root 12.399 18.2416 -10.5941 -6.29661 -10.4096 3.86405
lowerback 4.68765 0.477759 -0.920449
upperback 1.62225 0.599767 0.588215
thorax -0.977389 0.296469 1.0869
lowerneck -15.5816 -2.15228 -1.52028
upperneck 17.5442 -2.40245 -0.971601
head 8.00788 -1.34491 -0.346222
rclavicle -2.35218e-014 1.59028e-015
rhumerus -34.4943 12.8443 -92.6122
rradius 60.9019
rwrist -8.64984
rhand -25.7512 40.8187
rfingers 7.12502
rthumb 0.786035 10.8405
lclavicle -2.35218e-014 1.59028e-015
lhumerus -38.5055 17.204 77.6134
lradius 26.3183
lwrist 3.20255
lhand -29.1786 19.0607
lfingers 7.12502
lthumb -2.52418 49.0255
rfemur -10.1848 11.3325 17.0047
rtibia 26.7298
rfoot -10.3221 -2.57825
rtoes 17.9219
lfemur -19.7328 6.42914 -18.5805
ltibia 49.8403
lfoot -5.22197 0.755718
ltoes -14.6137
235
root 12.4029 18.2474 -10.6309 -6.53639 -10.4419 3.54025
lowerback 4.74265 0.524385 -0.60465
upperback 1.6854 0.676261 0.635839
thorax -0.942303 0.334562 0.954218
lowerneck -15.7633 -2.21409 -1.49029
upperneck 17.8328 -2.51221 -0.865498
head 8.13765 -1.38529 -0.333363
rclavicle -3.65888e-015 -7.95139e-016
rhumerus -34.8777 11.9726 -91.935
rradius 59.7791
rwrist -8.56471
rhand -25.5989 40.6112
rfingers 7.12502
rthumb 0.93318 10.6335
lclavicle -3.65888e-015 -7.95139e-016
lhumerus -38.2846 16.8014 77.498
lradius 25.8941
lwrist 3.37407
lhand -29.1481 18.8205
lfingers 7.12502
lthumb -2.4947 48.7856
rfemur -9.91573 11.334 17.3968
rtibia 26.5932
rfoot -10.0875 -2.44255
rtoes 18.0663
lfemur -19.2445 6.26489 -17.9879
ltibia 51.1227
lfoot -4.86934 -0.397086
ltoes -13.7344
236
root 12.4033 18.2475 -10.6786 -6.64598 -10.5797 3.32386
lowerback 4.87254 0.717023 -0.390491
upperback 1.6169 0.943194 0.666555
thorax -1.08779 0.468912 0.848681
lowerneck -15.9266 -2.40267 -1.72101
upperneck 18.1639 -2.75223 -0.667133
head 8.28517 -1.49539 -0.262563
rclavicle 1.41137e-014 3.18055e-015
rhumerus -35.3522 10.4533 -91.0599
rradius 58.7563
rwrist -8.25487
rhand -25.6656 40.6491
rfingers 7.12502
rthumb 0.868766 10.6711
lclavicle 1.41137e-014 3.18055e-015
lhumerus -38.2308 16.291 77.4417
lradius 25.5422
lwrist 2.90557
lhand -28.9119 18.6176
lfingers 7.12502
lthumb -2.2666 48.5853
rfemur -9.84642 11.2368 17.6756
rtibia 26.4362
rfoot -9.80025 -2.23143
rtoes 17.6898
lfemur -18.9079 6.23196 -17.5228
ltibia 52.3215
lfoot -4.28946 -1.543
ltoes -13.452
237
root 12.4051 18.2397 -10.7319 -6.56985 -10.5545 3.15332
lowerback 4.73078 0.6196 -0.373695
upperback 1.56356 0.814275 0.63599
thorax -1.06045 0.404697 0.816525
lowerneck -15.898 -2.34708 -1.41104
upperneck 18.0693 -2.73947 -0.736049
head 8.24198 -1.47485 -0.33361
rclavicle -7.86442e-015 7.95139e-015
rhumerus -35.4808 9.54305 -90.5873
rradius 57.3294
rwrist -8.05919
rhand -25.6319 40.4542
rfingers 7.12502
rthumb 0.901284 10.4764
lclavicle -7.86442e-015 7.95139e-015
lhumerus -38.5708 17.1016 76.6303
lradius 25.5949
lwrist 2.37166
lhand -28.6804 18.8454
lfingers 7.12502
lthumb -2.04302 48.8153
rfemur -10.0071 11.2071 17.8487
rtibia 26.3131
rfoot -9.7656 -2.19318
rtoes 16.13
lfemur -18.7456 6.12313 -17.188
ltibia 53.4536
lfoot -3.2452 -2.46102
ltoes -12.713
238
root 12.4091 18.2373 -10.7722 -6.55025 -10.3503 3.28909
lowerback 4.48229 0.416509 -0.652555
upperback 1.44313 0.530989 0.51997
thorax -1.0418 0.263653 0.870995
lowerneck -15.5985 -2.28637 -1.21482
upperneck 17.9364 -2.71846 -0.698563
head 8.14126 -1.44791 -0.345633
rclavicle -1.7257e-014 -1.11319e-014
rhumerus -35.463 9.10909 -90.2802
rradius 55.1845
rwrist -8.16386
rhand -25.8535 40.457
rfingers 7.12502
rthumb 0.687214 10.4784
lclavicle -1.7257e-014 -1.11319e-014
lhumerus -39.0605 18.0295 75.7204
lradius 25.6917
lwrist 2.22176
lhand -28.6351 19.5912
lfingers 7.12502
lthumb -1.99934 49.5616
rfemur -10.1063 11.0931 17.6389
rtibia 26.2371
rfoot -9.86553 -2.13793
rtoes 14.6506
lfemur -18.4655 5.92379 -17.2337
ltibia 54.4763
lfoot -2.03155 -3.41857
ltoes -11.9372
